<svg width="1000" height="1000" version="1.1" xmlns="http://www.w3.org/2000/svg" desc="Created with imagetracer.js version 1.2.6" ><path fill="rgb(97,126,255)" stroke="rgb(97,126,255)" stroke-width="1" opacity="0.8588235294117647" d="M 299 318 L 384.5 318 L 385 319.5 L 386 320.5 L 386 344.5 Q 384 349 375.5 347 L 374.5 346 L 321.5 346 L 320.5 347 L 300.5 347 Q 296.5 344.5 298 336.5 L 299 332.5 L 298 331.5 L 298 321.5 L 299 318 Z " /><path fill="rgb(97,126,255)" stroke="rgb(97,126,255)" stroke-width="1" opacity="0.8588235294117647" d="M 383.5 411 L 499.5 411 L 500 413.5 L 501 414.5 L 501 436.5 L 498.5 440 Q 492.3 441.8 490.5 439 L 393.5 439 Q 392.3 441.2 387.5 440 L 385.5 440 L 382 437.5 L 382 412.5 L 383.5 411 Z " /><path fill="rgb(97,126,255)" stroke="rgb(97,126,255)" stroke-width="1" opacity="0.8588235294117647" d="M 560.5 515 L 569.5 515 L 571 516.5 L 572 526.5 Q 569.8 527.7 571 532.5 L 572 537.5 L 572 539.5 L 569.5 544 L 500 544 L 500 517.5 L 501.5 516 L 559.5 516 L 560.5 515 Z " /><path fill="rgb(97,126,255)" stroke="rgb(97,126,255)" stroke-width="1" opacity="0.8588235294117647" d="M 569 619 L 693.5 619 L 695 620.5 L 695 645.5 L 693.5 647 L 678.5 648 L 677.5 647 L 597.5 647 L 595.5 647 L 584.5 646 L 575.5 648 L 569 647 L 569 619 Z " /><path fill="rgb(0,0,0)" stroke="rgb(0,0,0)" stroke-width="1" opacity="0" d="M 0 0 L 1000 0 L 1000 1000 L 0 1000 L 0 0 Z M 299 318 L 298 322 L 298 332 L 299 333 L 298 337 Q 297 344 301 347 L 321 347 L 322 346 L 375 346 L 376 347 Q 384 349 386 345 L 386 321 L 385 320 L 385 318 L 299 318 Z M 384 411 L 382 413 L 382 438 L 386 440 L 388 440 Q 392 441 394 439 L 491 439 Q 492 442 499 440 L 501 437 L 501 415 L 500 414 L 500 411 L 384 411 Z M 561 515 L 560 516 L 502 516 L 500 518 L 500 544 L 570 544 L 572 540 L 572 538 L 571 533 Q 570 528 572 527 L 571 517 L 570 515 L 561 515 Z M 569 619 L 569 647 L 576 648 L 585 646 L 596 647 L 598 647 L 678 647 L 679 648 L 694 647 L 695 646 L 695 621 L 694 619 L 569 619 Z " /></svg>