<svg width="100" height="100" version="1.1" xmlns="http://www.w3.org/2000/svg" desc="Created with imagetracer.js version 1.2.6" ><path fill="rgb(255,255,255)" stroke="rgb(255,255,255)" stroke-width="1" opacity="1" d="M 0 0 L 100 0 L 100 100 L 0 100 L 0 0 Z M 12 7 L 10 8 L 7 12 L 8 14 L 10 15 L 55 15 Q 57 14 56 10 L 52 7 L 12 7 Z M 21 29 Q 18 30 19 35 L 23 37 L 73 37 Q 75 36 74 32 L 71 29 L 21 29 Z M 29 53 Q 26 54 27 59 L 31 61 L 83 61 Q 85 60 84 56 L 81 53 L 29 53 Z M 40 77 Q 37 78 38 83 L 42 85 L 83 85 Q 85 84 84 80 L 81 77 L 40 77 Z " /><path fill="rgb(59,130,246)" stroke="rgb(59,130,246)" stroke-width="1" opacity="1" d="M 11.5 7 L 51.5 7 L 56 9.5 Q 57 14 54.5 15 L 9.5 15 L 8 13.5 L 7 11.5 L 9.5 8 L 11.5 7 Z " /><path fill="rgb(59,130,246)" stroke="rgb(59,130,246)" stroke-width="1" opacity="1" d="M 20.5 29 L 70.5 29 L 74 31.5 Q 75 36 72.5 37 L 22.5 37 L 19 34.5 Q 18 30 20.5 29 Z " /><path fill="rgb(59,130,246)" stroke="rgb(59,130,246)" stroke-width="1" opacity="1" d="M 28.5 53 L 80.5 53 L 84 55.5 Q 85 60 82.5 61 L 30.5 61 L 27 58.5 Q 26 54 28.5 53 Z " /><path fill="rgb(59,130,246)" stroke="rgb(59,130,246)" stroke-width="1" opacity="1" d="M 39.5 77 L 80.5 77 L 84 79.5 Q 85 84 82.5 85 L 41.5 85 L 38 82.5 Q 37 78 39.5 77 Z " /></svg>